<?xml version="1.0" standalone="no"?>
<!DOCTYPE svg PUBLIC "-//W3C//DTD SVG 20010904//EN"
 "http://www.w3.org/TR/2001/REC-SVG-20010904/DTD/svg10.dtd">
<svg version="1.0" xmlns="http://www.w3.org/2000/svg"
 width="434.000000pt" height="500.000000pt" viewBox="0 0 434.000000 500.000000"
 preserveAspectRatio="xMidYMid meet">

<g transform="translate(0.000000,500.000000) scale(0.100000,-0.100000)"
fill="#000000" stroke="none">
<path d="M0 2500 l0 -2500 2170 0 2170 0 0 1540 0 1541 -40 -41 c-21 -22 -44
-40 -51 -40 -6 0 -41 -29 -78 -64 -36 -35 -89 -84 -118 -110 -28 -26 -54 -58
-57 -72 -5 -17 -12 -24 -21 -20 -8 3 -20 -3 -27 -13 -7 -10 -21 -22 -32 -28
-10 -5 -41 -32 -69 -59 -28 -27 -46 -42 -42 -34 15 24 -142 -108 -236 -200
-48 -47 -109 -105 -136 -129 -26 -23 -39 -40 -29 -37 27 9 234 9 271 0 46 -10
196 -93 233 -128 44 -40 82 -116 82 -161 0 -68 -80 -184 -240 -344 -50 -51
-100 -86 -214 -150 -82 -47 -179 -104 -215 -128 -49 -31 -57 -35 -31 -12 19
16 76 58 125 91 171 117 353 249 366 266 12 14 9 13 -16 -3 -79 -51 -139 -84
-143 -80 -7 6 -12 2 98 79 120 84 243 225 188 213 -9 -1 -14 13 -16 42 -4 48
10 73 30 53 15 -15 48 -16 48 -1 0 38 -79 118 -88 90 -5 -15 -103 -61 -130
-61 -12 0 -22 -5 -22 -11 0 -7 -13 -9 -37 -5 -21 3 -59 9 -86 12 -42 6 -46 9
-35 23 10 13 10 14 -2 3 -19 -17 -56 -17 -42 1 8 10 -2 12 -46 11 -31 -1 -65
0 -74 3 -22 5 -24 43 -3 43 16 0 20 28 7 45 -4 6 -17 15 -29 22 -40 23 -183
-42 -183 -83 0 -6 -8 -18 -17 -25 -11 -10 -14 -10 -9 -2 17 30 -16 9 -61 -37
-26 -27 -51 -50 -54 -50 -4 0 -24 -17 -45 -37 -22 -21 -73 -67 -114 -103 -107
-94 -191 -169 -223 -201 -27 -26 -27 -27 -5 -22 13 3 -1 -8 -31 -23 -30 -16
-82 -56 -117 -89 -34 -33 -78 -73 -96 -88 -18 -16 -27 -26 -20 -22 6 3 12 4
12 1 0 -3 -15 -12 -32 -19 -18 -8 -59 -41 -90 -73 -60 -63 -67 -69 -111 -97
-15 -10 -25 -22 -22 -27 4 -6 0 -10 -7 -10 -17 -1 -52 -31 -67 -58 -6 -12 -15
-21 -19 -19 -10 3 -112 -84 -112 -95 0 -5 10 -4 23 2 21 11 21 10 3 -4 -11 -9
-23 -16 -27 -16 -5 0 -29 -43 -54 -95 -37 -78 -60 -110 -125 -175 -43 -44 -82
-89 -85 -100 -3 -11 -14 -20 -22 -20 -9 0 -24 -7 -33 -15 -13 -12 -23 -13 -43
-6 -29 11 -45 31 -25 31 21 0 85 57 91 80 4 17 3 19 -8 10 -10 -8 -14 -7 -17
2 -5 13 -29 -3 -108 -70 l-35 -30 29 -31 c37 -38 102 -71 142 -71 17 0 39 -7
50 -15 12 -9 44 -14 91 -15 l71 0 72 77 c39 43 74 78 78 78 4 0 22 6 39 14 42
17 59 10 80 -36 25 -52 47 -53 94 -4 32 35 37 45 28 59 -9 14 -7 27 10 60 11
23 21 49 21 58 0 9 10 32 21 51 34 55 15 49 -32 -9 -23 -29 -40 -47 -38 -41 8
26 74 102 89 103 8 0 31 16 51 36 33 32 42 36 97 37 34 2 64 6 68 10 4 4 18 0
32 -9 14 -9 34 -13 47 -10 27 7 35 -8 35 -64 0 -21 7 -45 15 -54 22 -22 79
-30 106 -15 44 23 128 102 131 123 4 24 44 37 76 23 26 -12 29 -27 5 -28 -16
0 -15 -2 2 -10 15 -7 9 -8 -22 -4 -34 4 -43 2 -47 -12 -10 -29 -156 -122 -203
-129 -39 -6 -44 -11 -91 -88 -28 -44 -65 -94 -83 -111 -36 -34 -31 -19 16 40
37 47 115 163 115 170 0 3 -9 5 -20 5 -17 0 -20 7 -20 40 0 35 -3 40 -27 45
-16 3 -41 12 -58 20 -102 48 -161 22 -218 -94 -20 -42 -37 -88 -37 -102 0 -36
-47 -124 -82 -154 -16 -14 -40 -25 -52 -25 -24 0 -56 28 -56 50 0 22 -94 6
-140 -24 -48 -31 -50 -42 -10 -49 39 -8 41 -42 5 -59 -18 -8 -24 -16 -19 -27
4 -9 7 -27 8 -41 1 -21 -4 -25 -32 -28 -19 -2 -52 4 -73 12 -50 20 -52 20 -39
-3 5 -11 10 -24 10 -30 0 -17 -73 -13 -99 5 -17 12 -25 14 -30 5 -9 -15 -97
-9 -114 8 -6 6 -16 11 -23 11 -6 0 -23 11 -38 25 -15 14 -31 25 -35 25 -5 0
-16 10 -25 22 l-17 23 6 -30 5 -30 -19 23 c-27 31 -26 104 1 134 11 13 17 18
14 13 -2 -6 -1 -17 4 -25 5 -8 2 -22 -7 -37 -9 -13 -13 -26 -10 -29 3 -3 10 4
17 15 6 12 20 21 31 21 21 0 21 0 1 33 -11 18 -19 46 -17 64 1 18 -1 30 -5 28
-10 -6 -33 40 -28 55 2 7 18 18 35 25 l31 13 -16 -27 c-8 -15 -12 -35 -9 -45
6 -15 12 -13 47 16 42 35 49 48 25 48 -8 0 -15 -4 -15 -10 0 -5 -7 -10 -15
-10 -9 0 -12 6 -9 15 4 10 20 15 50 15 41 0 50 5 112 62 37 34 85 78 107 98
92 82 125 124 146 189 26 77 99 200 129 219 24 14 22 5 -5 -28 -7 -8 -26 -57
-44 -109 l-31 -95 37 35 c20 19 68 64 107 102 38 37 73 67 77 67 4 0 38 29 75
65 38 36 72 65 76 65 3 0 10 9 13 20 4 12 25 32 47 46 23 15 70 55 105 90 36
35 73 69 84 74 10 6 26 24 34 40 9 17 22 30 30 30 8 0 29 20 47 45 18 24 37
44 42 45 5 0 2 -8 -7 -18 -10 -10 -17 -22 -17 -27 0 -5 11 7 25 26 14 19 29
34 33 34 4 0 6 3 5 7 -1 3 5 12 15 20 15 12 16 11 3 -4 -20 -26 2 -22 25 4 12
14 14 19 4 13 -8 -4 3 8 25 26 22 19 75 67 119 107 43 39 82 72 86 72 4 0 40
32 81 72 41 39 67 69 58 66 -9 -4 -62 -9 -117 -13 -84 -6 -102 -5 -102 6 0 10
49 26 158 52 l157 39 74 64 c41 35 78 64 83 64 4 0 8 9 8 21 0 15 5 19 15 15
10 -3 54 33 133 111 64 63 138 130 164 148 26 17 58 47 71 66 12 19 43 45 67
58 24 14 87 66 140 115 52 50 137 129 188 175 l92 84 0 928 0 929 -2170 0
-2170 0 0 -2500z m2488 2243 l-3 -138 -335 0 -335 0 -3 138 -3 137 341 0 341
0 -3 -137z m-1832 -297 c51 -51 48 -91 -13 -147 l-48 -44 -3 40 c-4 64 -10 82
-30 87 -37 10 -52 -9 -52 -66 0 -50 5 -62 80 -176 44 -67 84 -139 90 -159 5
-20 10 -71 10 -113 0 -71 -2 -80 -28 -109 -23 -26 -38 -33 -80 -37 -110 -10
-172 24 -172 95 0 32 7 46 43 81 23 23 46 42 49 42 4 0 8 -26 10 -57 3 -56 4
-58 32 -61 36 -4 46 10 46 71 0 55 -11 79 -92 200 -80 119 -88 141 -88 239 0
125 21 146 144 147 64 1 70 -1 102 -33z m390 0 l34 -34 0 -151 c0 -204 -16
-231 -130 -231 l-50 0 0 -156 0 -155 -47 3 -48 3 -3 378 -2 377 106 0 106 0
34 -34z m244 -329 l0 -364 -50 -42 -50 -42 0 405 0 406 50 0 50 0 0 -363z
m352 334 l33 -29 3 -304 c2 -189 -1 -315 -7 -331 -6 -15 -25 -36 -43 -47 -28
-17 -47 -20 -128 -18 l-95 3 -3 378 -2 377 105 0 c102 0 106 -1 137 -29z m393
-21 l0 -45 -72 -3 -73 -3 0 -109 0 -110 45 0 c50 0 52 -4 28 -54 -11 -25 -24
-36 -42 -38 l-26 -3 -3 -122 -3 -122 73 -3 73 -3 0 -45 0 -45 -120 0 -120 0
-3 365 c-1 201 0 371 3 378 3 9 34 12 122 10 l118 -3 0 -45z m335 35 c16 -8
34 -24 40 -34 5 -11 10 -86 10 -170 0 -146 -1 -150 -24 -168 l-24 -19 24 -21
c23 -20 24 -28 24 -133 l0 -111 65 7 c72 7 87 1 103 -45 9 -25 8 -28 -12 -26
-15 2 -22 -3 -23 -16 -1 -11 2 -17 8 -14 5 4 9 0 9 -8 0 -8 -15 -21 -32 -27
-24 -10 -28 -14 -16 -17 15 -4 13 -9 -13 -32 -23 -22 -39 -28 -72 -27 -28 1
-41 5 -40 14 2 6 -1 12 -6 12 -9 0 -71 96 -71 111 0 6 5 7 12 3 8 -5 8 -3 2 7
-5 8 -7 66 -5 130 3 127 -5 149 -54 149 l-24 0 -3 -152 -3 -153 -47 -3 -48 -3
0 380 0 381 95 0 c66 0 105 -5 125 -15z m464 6 c3 -4 20 -117 38 -249 18 -133
33 -240 34 -239 1 1 16 108 33 237 18 129 34 241 36 248 3 8 26 12 70 12 l65
0 -2 -377 -3 -378 -45 0 -45 0 -3 245 -4 245 -34 -235 c-19 -129 -36 -241 -39
-247 -4 -12 -75 -19 -75 -9 0 3 -13 103 -29 223 -17 120 -32 232 -34 248 -2
17 -5 -75 -6 -203 0 -129 -4 -232 -8 -230 -5 2 -25 10 -45 18 l-38 14 0 343 0
343 64 0 c36 0 67 -4 70 -9z m618 -341 c26 -190 47 -360 47 -378 l1 -33 -47 3
-48 3 -7 55 c-4 30 -10 82 -14 115 l-7 60 -18 -42 c-12 -30 -24 -43 -38 -43
-16 0 -20 -10 -28 -72 l-8 -73 -42 -3 c-41 -3 -43 -2 -43 23 0 31 89 704 95
723 3 9 21 12 57 10 l53 -3 47 -345z m249 285 c10 -33 37 -134 61 -225 l43
-165 3 228 2 228 43 -3 42 -3 0 -375 0 -375 -39 0 -39 0 -59 205 c-32 113 -63
214 -68 225 -5 12 -9 -68 -9 -208 l-1 -228 -42 3 -43 3 -3 378 -2 378 47 -3
47 -3 17 -60z m-1076 -335 l0 -35 -63 -3 -62 -3 0 41 0 41 63 -3 62 -3 0 -35z
m55 -275 c19 -12 10 -25 -18 -25 -15 0 -32 -4 -37 -9 -6 -6 -18 2 -32 23 l-21
33 49 -8 c27 -4 53 -11 59 -14z m-326 -152 c9 -18 12 -33 7 -33 -5 0 -12 4
-15 9 -4 5 -18 5 -36 -2 -21 -8 -35 -25 -50 -59 -11 -27 -18 -54 -14 -60 4 -6
1 -9 -7 -6 -8 3 -16 13 -18 23 -6 36 20 124 50 165 l30 41 18 -23 c10 -13 26
-38 35 -55z m551 -140 c-4 -38 -14 -86 -23 -107 -13 -34 -16 -37 -23 -19 -12
33 1 145 17 139 8 -3 15 6 19 25 12 52 17 31 10 -38z m-1455 -5 c33 -19 40
-19 101 -8 44 8 95 10 150 5 46 -4 102 -6 124 -4 126 9 244 3 309 -15 57 -16
69 -17 77 -5 7 11 12 10 30 -8 l22 -22 -22 6 c-23 6 -23 5 -20 -81 2 -61 -1
-89 -10 -98 -11 -11 -13 -7 -9 19 4 26 2 30 -9 22 -7 -7 -13 -9 -13 -7 0 3
-18 2 -41 -2 l-40 -8 28 31 28 30 -44 -32 c-44 -31 -44 -31 -65 -12 -12 11
-34 19 -51 19 -17 -1 -41 2 -53 6 -22 7 -19 11 36 52 33 25 63 52 66 60 5 13
9 14 21 4 8 -7 13 -16 10 -19 -2 -4 1 -8 8 -8 7 0 22 -3 35 -7 13 -5 22 -3 22
3 0 6 14 11 32 11 52 0 16 24 -40 26 -26 1 -55 5 -65 9 -13 5 -28 -2 -53 -28
-20 -20 -53 -48 -75 -62 -34 -24 -42 -26 -70 -16 -18 6 -44 11 -58 10 -18 -1
-12 -5 22 -14 63 -17 65 -20 14 -21 -23 0 -55 -4 -71 -8 -29 -9 -29 -8 -23 23
4 19 2 31 -4 31 -6 0 -8 -3 -6 -7 9 -16 -13 -53 -31 -53 -28 0 -106 -64 -125
-102 -9 -18 -17 -28 -17 -23 0 6 -14 26 -31 44 -16 19 -23 31 -15 28 10 -4 16
-1 16 7 0 8 -6 17 -12 19 -7 3 -1 6 15 6 15 1 27 7 27 14 0 7 12 30 26 52 l25
40 -29 -34 c-29 -32 -31 -32 -41 -13 -9 17 -7 24 15 41 15 12 45 26 68 31 91
23 104 28 51 23 -73 -7 -113 -21 -151 -55 -19 -17 -32 -23 -28 -14 3 9 31 32
62 51 62 39 64 43 7 19 -44 -18 -113 -84 -107 -102 5 -17 -23 -15 -37 2 -7 8
-20 12 -30 9 -10 -3 -22 0 -25 6 -4 6 -16 11 -27 11 -10 0 -19 4 -19 8 0 5
-25 8 -55 8 -42 -1 -55 3 -55 13 0 12 -2 12 -12 -1 -7 -9 -32 -18 -55 -21 -35
-4 -43 -2 -44 11 0 13 -3 12 -11 -4 -5 -12 -23 -25 -39 -28 -16 -3 -52 -27
-79 -52 -33 -31 -50 -41 -50 -31 0 14 -7 12 -36 -8 -20 -14 -42 -25 -49 -25
-7 0 -47 -22 -89 -50 -42 -27 -81 -50 -85 -50 -5 0 -32 -16 -61 -35 -29 -19
-57 -35 -63 -35 -6 0 -28 -17 -49 -37 -40 -39 -50 -73 -20 -73 16 -1 16 -1 0
-14 -10 -7 -18 -18 -18 -23 0 -20 -60 -143 -70 -143 -12 0 -12 4 0 55 8 36 7
38 -6 21 -8 -11 -14 -25 -14 -32 0 -12 -89 -102 -116 -117 -18 -10 -37 3 -26
19 4 5 24 23 45 38 20 16 37 33 37 38 0 7 -4 7 -12 1 -7 -6 -26 -13 -43 -17
-16 -4 -38 -9 -49 -13 -12 -3 -16 -1 -12 6 4 6 16 11 26 11 11 0 24 9 29 19 6
10 25 25 43 31 l33 13 -30 7 c-16 3 -38 2 -49 -3 -14 -7 -17 -6 -14 5 3 7 18
15 34 16 16 2 34 7 39 12 6 4 22 10 36 14 29 6 45 34 30 49 -5 5 -17 4 -30 -2
-33 -18 -25 -3 10 18 18 11 37 17 44 15 7 -3 33 19 56 48 56 69 77 85 284 220
204 132 306 185 394 204 36 8 98 25 136 39 80 28 130 26 185 -7z m1470 -210
c-1 -26 -21 -104 -36 -139 -19 -43 -65 -73 -100 -65 -13 4 -24 12 -24 19 0 7
29 45 65 86 35 40 67 82 70 92 7 21 25 26 25 7z m-640 -38 c0 -16 -4 -31 -9
-34 -9 -6 -20 43 -13 62 7 21 22 2 22 -28z m185 -30 c50 -38 101 -83 112 -98
l22 -29 -25 -12 c-14 -6 -32 -11 -40 -11 -30 0 -76 32 -86 61 -5 16 -14 29
-19 29 -5 0 -9 6 -9 14 0 8 -4 17 -9 20 -13 8 0 -46 18 -73 15 -23 14 -24 -5
-13 -23 12 -71 108 -60 119 4 4 11 1 16 -7 6 -8 10 -10 10 -4 0 6 -7 17 -15
24 -15 12 -21 50 -8 50 3 0 48 -31 98 -70z m-966 27 c22 -8 37 -23 47 -44 12
-31 12 -33 -9 -32 -12 0 -53 7 -92 15 -68 13 -69 14 -15 9 52 -4 54 -4 25 9
-45 19 -99 36 -119 36 -9 0 -14 5 -11 10 8 14 132 12 174 -3z m191 -16 c-26
-15 -66 -24 -55 -13 6 5 19 12 30 15 32 8 41 7 25 -2z m-78 -57 c-3 -28 -1
-35 8 -29 9 6 11 4 5 -5 -6 -10 -11 -9 -22 5 -14 20 -17 47 -6 58 14 15 19 5
15 -29z m683 -54 c3 -46 3 -81 0 -78 -10 9 -26 141 -20 157 10 25 14 7 20 -79z
m-1409 42 c-39 -8 -117 -39 -175 -68 -58 -29 -97 -46 -86 -38 29 23 153 84
210 105 28 10 66 18 85 18 27 -1 19 -5 -34 -17z m319 -2 c-4 -6 6 -10 22 -10
23 -1 19 -5 -27 -24 -30 -12 -68 -26 -85 -30 -24 -5 -18 1 30 34 64 43 70 46
60 30z m1672 -87 c-4 -21 4 -38 37 -78 23 -27 55 -72 71 -100 15 -27 36 -59
46 -70 26 -30 99 -176 99 -200 0 -11 -17 12 -38 53 -20 39 -43 72 -51 72 -13
0 -12 -9 4 -55 7 -20 6 -20 -9 -1 -9 11 -17 32 -17 48 -1 15 -2 34 -3 41 -1 6
-12 35 -26 62 -21 40 -30 50 -48 48 -20 -3 -23 1 -20 29 3 23 -3 39 -24 61
-15 17 -29 29 -32 26 -2 -2 -16 -26 -30 -54 -15 -27 -25 -42 -22 -32 3 10 6
30 6 43 0 13 9 33 19 43 11 11 17 21 15 24 -5 5 16 67 23 67 3 0 3 -12 0 -27z
m-1193 -22 c-3 -3 -15 6 -27 18 l-22 24 27 -19 c14 -10 24 -21 22 -23z m338
-30 l44 -19 23 -118 c19 -100 39 -163 58 -184 2 -2 8 1 12 8 4 7 22 17 41 22
l33 9 -23 -24 c-23 -25 -23 -25 -4 -39 17 -13 20 -12 31 17 11 31 11 30 12
-24 1 -64 6 -69 77 -69 55 0 105 20 159 65 l42 34 37 -37 c38 -39 43 -62 26
-108 l-11 -27 -37 36 c-36 35 -38 35 -67 20 -37 -20 -154 -29 -194 -15 -37 13
-40 4 -8 -25 36 -34 105 -65 155 -70 35 -4 56 -14 80 -36 35 -34 39 -53 18
-82 -13 -18 -15 -18 -44 12 -17 16 -64 46 -104 65 -41 19 -91 50 -111 68 -20
17 -37 28 -37 23 0 -20 73 -114 109 -139 21 -16 51 -47 65 -70 14 -22 35 -49
46 -59 15 -13 17 -22 9 -36 -8 -15 -6 -19 7 -19 11 0 14 -5 9 -17 -4 -10 -10
-27 -13 -38 -5 -18 -4 -18 11 -6 10 7 -3 -22 -28 -65 -57 -100 -116 -249 -126
-323 -7 -48 -7 -43 -5 34 4 100 24 165 81 259 36 59 43 90 25 101 -5 3 -10 15
-10 26 0 22 -82 160 -133 224 -18 22 -40 52 -49 65 l-18 25 6 -30 c13 -58 46
-136 80 -186 40 -59 41 -73 14 -148 -12 -31 -26 -90 -34 -131 l-13 -75 -7 100
c-5 63 -4 116 2 140 12 44 4 98 -23 159 -9 22 -25 71 -36 110 l-18 71 1 -50
c3 -102 0 -114 -40 -157 l-38 -41 -25 24 c-32 30 -45 66 -58 151 -13 89 -4
120 37 133 58 17 34 26 -63 23 -83 -2 -95 -4 -95 -20 0 -9 8 -22 18 -27 9 -6
12 -11 5 -11 -23 0 -35 -73 -30 -185 3 -61 8 -126 11 -145 3 -19 -2 -6 -13 29
-10 35 -22 97 -26 137 -4 41 -11 74 -16 74 -6 0 -7 -15 -4 -32 31 -187 32
-251 1 -90 -12 62 -27 116 -33 120 -8 5 -13 38 -14 92 -2 111 6 278 13 285 3
3 21 -3 39 -14 19 -10 45 -22 59 -26 14 -4 46 -27 72 -51 83 -77 141 -88 75
-14 -20 22 -51 64 -68 95 -26 47 -36 56 -72 65 -105 27 -120 34 -130 63 -5 16
-7 30 -4 33 2 2 24 -7 48 -21 24 -13 68 -30 97 -36 53 -12 53 -13 93 -89 39
-75 83 -130 95 -118 3 4 -1 17 -10 30 -8 12 -24 59 -36 103 -36 137 -31 130
-131 161 -49 15 -89 30 -89 34 0 10 81 29 107 24 11 -2 41 -12 65 -23z m-292
7 c0 -9 3 -8 10 2 10 16 23 8 18 -12 -2 -10 -20 -12 -78 -7 -74 5 -74 5 -17 7
36 1 56 6 52 12 -3 6 -1 10 4 10 6 0 11 -6 11 -12z m2510 -61 c0 -2 -15 -16
-32 -33 l-33 -29 29 33 c28 30 36 37 36 29z m-3615 -27 c-10 -11 -23 -20 -28
-20 -6 0 -2 9 8 20 10 11 23 20 28 20 6 0 2 -9 -8 -20z m2166 -83 c-10 -9 -11
-8 -5 6 3 10 9 15 12 12 3 -3 0 -11 -7 -18z m-2576 -167 c-3 -5 -11 -10 -16
-10 -6 0 -7 5 -4 10 3 6 11 10 16 10 6 0 7 -4 4 -10z m2922 -122 c-3 -8 -6 -5
-6 6 -1 11 2 17 5 13 3 -3 4 -12 1 -19z m-1358 -264 c-13 -41 -26 -69 -29 -63
-8 13 -20 -12 -21 -44 -1 -18 -3 -16 -10 8 -15 45 -5 86 38 154 30 49 39 57
41 40 2 -12 -7 -55 -19 -95z m-79 -105 c0 -19 -4 -28 -11 -23 -6 3 -15 0 -20
-7 -7 -11 -9 -11 -9 -1 0 11 30 61 38 62 1 0 2 -14 2 -31z m-54 -117 c-10 -10
-28 47 -21 65 6 14 10 10 17 -21 4 -21 6 -41 4 -44z m-83 -24 c-101 -108 -125
-128 -149 -128 -15 0 -22 -4 -19 -10 17 -27 -57 -59 -83 -37 -12 10 -14 9 -10
-3 3 -9 -5 -20 -21 -28 l-26 -12 27 4 c38 5 25 -11 -19 -23 -30 -9 -40 -7 -55
6 -19 17 -26 5 -7 -14 7 -7 -9 -14 -58 -22 -37 -7 -75 -14 -84 -15 -9 -2 -24
1 -34 6 -13 8 -16 7 -13 -3 3 -9 -23 -22 -85 -42 -49 -16 -87 -30 -85 -32 2
-2 32 3 68 11 335 76 398 81 279 23 -41 -20 -90 -42 -109 -50 -19 -7 -62 -30
-95 -51 -33 -21 -78 -47 -100 -59 -22 -12 -60 -38 -85 -58 -25 -20 -62 -48
-84 -61 -21 -12 -58 -40 -83 -62 -54 -47 -90 -66 -124 -66 -33 1 -100 -42
-145 -91 -41 -46 -84 -108 -84 -122 0 -5 -25 -36 -55 -69 -30 -33 -55 -55 -55
-49 0 14 90 166 163 274 76 111 249 285 342 344 211 132 546 288 742 346 44
13 62 27 119 91 38 42 70 71 72 65 2 -7 -18 -35 -45 -63z m1987 -102 c-14 -8
-28 -12 -32 -10 -4 3 -12 -4 -17 -15 -7 -13 -7 -21 -1 -23 6 -2 -9 -4 -33 -5
-23 -1 -63 -11 -89 -22 -27 -11 -48 -19 -48 -16 0 16 188 103 225 104 18 0 17
-1 -5 -13z m100 4 c0 -11 -14 -11 -50 0 -22 7 -21 8 13 9 20 1 37 -3 37 -9z
m-920 -204 c0 -2 -8 -10 -17 -17 -16 -13 -17 -12 -4 4 13 16 21 21 21 13z
m-391 -134 c-19 -16 -56 -47 -84 -69 -72 -58 -82 -71 -146 -196 -32 -61 -58
-109 -59 -105 0 14 77 184 102 223 15 22 38 51 53 65 15 14 39 37 54 51 29 28
102 71 109 64 2 -2 -11 -17 -29 -33z m121 -236 c0 -2 -8 -10 -17 -17 -16 -13
-17 -12 -4 4 13 16 21 21 21 13z m410 -131 c0 -2 -10 -9 -22 -15 -22 -11 -22
-10 -4 4 21 17 26 19 26 11z m-70 -29 c0 -10 -71 -47 -82 -44 -6 2 4 14 23 26
31 20 59 28 59 18z m-200 -107 c-14 -11 -33 -30 -43 -42 l-18 -22 11 25 c13
27 49 60 65 59 6 0 -1 -9 -15 -20z m-202 -86 c-8 -10 -65 -80 -128 -155 -62
-76 -115 -138 -117 -138 -8 0 40 63 117 155 42 50 87 105 100 123 13 17 28 32
33 32 6 0 3 -8 -5 -17z m142 -42 c-5 -11 -15 -23 -21 -27 -6 -3 -3 5 6 20 20
30 30 35 15 7z m-1379 -12 c20 -10 20 -11 2 -24 -12 -10 -47 -14 -113 -14
l-95 1 60 13 c33 7 71 18 85 23 33 14 38 14 61 1z m989 -253 c0 -2 -8 -10 -17
-17 -16 -13 -17 -12 -4 4 13 16 21 21 21 13z m-1399 -89 c-8 -8 -11 -5 -11 9
0 27 14 41 18 19 2 -9 -1 -22 -7 -28z m1329 3 c-17 -22 -37 -43 -43 -47 -6 -4
6 14 27 40 21 26 40 47 43 47 3 0 -10 -18 -27 -40z m-559 -327 l24 -27 -24 15
c-14 9 -27 21 -29 27 -6 19 3 14 29 -15z"/>
<path d="M1830 4740 l0 -130 320 0 320 0 0 130 0 130 -320 0 -320 0 0 -130z
m74 70 c9 -48 11 -47 21 13 5 31 10 37 30 37 24 0 25 -2 26 -77 l1 -78 13 61
c17 87 21 96 47 92 20 -3 25 -12 34 -68 l11 -65 4 65 c4 73 16 83 69 56 26
-12 30 -12 30 0 0 8 7 14 15 14 18 0 35 -38 36 -83 1 -25 4 -20 13 23 l12 55
79 0 80 0 3 -92 c2 -74 6 -93 17 -93 8 0 15 -9 15 -20 0 -18 -7 -20 -80 -20
l-80 0 -1 73 -1 72 -9 -50 c-17 -93 -18 -95 -44 -95 -22 0 -25 5 -31 50 -4 28
-10 53 -14 55 -14 9 -19 -23 -9 -57 13 -45 12 -48 -11 -48 -15 0 -22 9 -27 33
l-7 32 -6 -30 c-4 -26 -10 -30 -43 -33 -26 -2 -39 1 -43 12 -8 20 -34 21 -34
1 0 -11 -11 -15 -40 -15 -37 0 -40 2 -41 28 -1 27 -1 27 -8 3 -8 -30 -31 -40
-31 -14 -1 17 -1 17 -11 1 -5 -10 -19 -18 -29 -18 -19 0 -20 8 -20 108 0 60 3
112 7 116 4 4 16 6 27 4 15 -2 23 -14 30 -48z"/>
<path d="M2140 4780 c0 -18 4 -29 10 -25 6 3 10 15 10 25 0 10 -4 22 -10 25
-6 4 -10 -7 -10 -25z"/>
<path d="M2340 4791 c0 -10 9 -21 20 -24 16 -4 20 0 20 19 0 17 -6 24 -20 24
-13 0 -20 -7 -20 -19z"/>
<path d="M2030 4724 c0 -14 4 -23 9 -20 5 3 7 15 4 26 -7 28 -13 25 -13 -6z"/>
<path d="M2342 4698 c5 -34 38 -37 38 -4 0 20 -5 26 -21 26 -15 0 -20 -5 -17
-22z"/>
<path d="M907 4383 c-4 -3 -7 -64 -7 -135 l0 -129 38 3 37 3 3 120 c2 104 0
121 -15 132 -18 14 -46 17 -56 6z"/>
<path d="M1507 4383 c-4 -3 -7 -132 -7 -285 l0 -279 38 3 37 3 3 270 c2 245 1
271 -15 283 -18 13 -46 16 -56 5z"/>
<path d="M2250 4255 l0 -135 30 0 c41 0 50 23 50 134 0 83 -3 99 -20 116 -11
11 -29 20 -40 20 -19 0 -20 -7 -20 -135z"/>
<path d="M3332 4127 c-18 -169 -18 -167 19 -167 30 0 31 2 26 33 -3 17 -9 75
-13 127 -3 52 -10 101 -13 108 -4 7 -13 -39 -19 -101z"/>
<path d="M1440 3439 c0 -5 5 -7 10 -4 6 3 10 8 10 11 0 2 -4 4 -10 4 -5 0 -10
-5 -10 -11z"/>
<path d="M2015 3410 c-3 -5 8 -8 25 -8 40 1 48 15 10 16 -16 0 -32 -3 -35 -8z"/>
<path d="M2170 3395 c-20 -24 -6 -28 15 -5 10 11 13 20 8 20 -6 0 -16 -7 -23
-15z"/>
<path d="M2041 3383 c0 -7 -7 -13 -15 -13 -8 0 -18 -6 -22 -12 -4 -7 -4 -10 1
-6 4 4 14 3 22 -4 18 -14 26 -5 20 24 -2 12 -5 17 -6 11z"/>
<path d="M925 3340 c-3 -5 -1 -10 4 -10 6 0 11 5 11 10 0 6 -2 10 -4 10 -3 0
-8 -4 -11 -10z"/>
<path d="M804 3287 c-33 -24 -84 -59 -114 -78 -50 -33 -111 -88 -70 -64 20 11
117 75 155 102 17 11 55 35 85 52 47 26 51 31 29 31 -16 0 -51 -18 -85 -43z"/>
<path d="M1858 2718 c7 -7 12 -19 12 -28 0 -40 81 -74 165 -68 l50 3 -70 38
c-74 40 -179 77 -157 55z"/>
<path d="M1841 2608 c0 -9 -4 -25 -7 -35 -5 -17 -5 -17 6 0 6 10 9 25 7 35 -4
15 -5 15 -6 0z"/>
<path d="M3877 2733 c-4 -3 -7 -11 -7 -17 0 -6 5 -5 12 2 6 6 9 14 7 17 -3 3
-9 2 -12 -2z"/>
<path d="M3919 2723 c-13 -16 -12 -17 4 -4 16 13 21 21 13 21 -2 0 -10 -8 -17
-17z"/>
<path d="M3432 2122 c4 -19 29 -23 35 -6 2 6 -6 14 -17 17 -16 4 -20 1 -18
-11z"/>
<path d="M3620 2026 c0 -2 9 -6 20 -9 11 -3 18 -1 14 4 -5 9 -34 13 -34 5z"/>
<path d="M1861 881 c-11 -15 -61 -61 -110 -101 -49 -40 -92 -78 -95 -85 -3 -8
5 -15 20 -18 55 -10 158 90 197 191 20 49 16 53 -12 13z"/>
<path d="M2560 886 c16 -14 90 -29 90 -18 0 7 -71 32 -92 32 -9 0 -8 -4 2 -14z"/>
<path d="M2277 643 c-4 -3 -7 -11 -7 -17 0 -6 5 -5 12 2 6 6 9 14 7 17 -3 3
-9 2 -12 -2z"/>
<path d="M1454 629 c-3 -6 -1 -16 5 -22 8 -8 11 -5 11 11 0 24 -5 28 -16 11z"/>
<path d="M2044 571 c-64 -29 -59 -38 12 -22 35 8 63 20 61 26 -6 17 -30 16
-73 -4z"/>
<path d="M1630 430 c73 -64 190 -85 219 -38 12 19 10 19 -36 18 -26 -2 -55 0
-63 2 -8 3 -35 10 -60 16 -25 6 -54 14 -65 17 -17 6 -16 3 5 -15z"/>
<path d="M1907 443 c-15 -14 -5 -23 26 -23 30 1 31 1 13 15 -22 17 -29 18 -39
8z"/>
<path d="M1540 400 c0 -5 6 -10 14 -10 8 0 26 -14 41 -32 28 -33 67 -58 91
-58 8 0 14 3 14 7 0 8 -76 74 -104 90 -26 15 -56 17 -56 3z"/>
<path d="M1689 370 c13 -11 27 -20 32 -20 18 0 8 10 -23 25 l-33 16 24 -21z"/>
<path d="M1851 377 c-19 -19 -12 -27 23 -27 45 0 54 15 17 28 -20 7 -32 7 -40
-1z"/>
<path d="M1688 343 c17 -17 35 -23 70 -23 42 1 45 2 29 15 -12 8 -31 11 -53 8
-22 -4 -41 -1 -52 8 -10 8 -7 4 6 -8z"/>
<path d="M1920 328 c-33 -17 -34 -18 -9 -18 15 0 32 7 39 15 19 22 10 23 -30
3z"/>
</g>
</svg>
